<?xml version="1.0" encoding="UTF-8"?>
<svg width="453px" height="119px" viewBox="0 0 453 119" version="1.1" xmlns="http://www.w3.org/2000/svg" xmlns:xlink="http://www.w3.org/1999/xlink">
    <g id="simplicite" stroke="none" stroke-width="1" fill="none" fill-rule="evenodd">
        <g id="logo-(1)" transform="translate(4.000000, 3.000000)" fill="#000000" fill-rule="nonzero">
            <polygon id="Path" points="73.1657073 -2.66134213e-15 34.2525002 -2.66134213e-15 34.2525002 6.33309271 73.1657073 6.33309271"></polygon>
            <polygon id="Path" points="73.1657073 106.667072 34.2525002 106.667072 34.2525002 113 73.1657073 113"></polygon>
            <polygon id="Path" points="94.1515259 15.1816727 13.2658081 15.1816727 13.2658081 21.5147622 94.1515259 21.5147622"></polygon>
            <polygon id="Path" points="94.1515259 91.4401331 13.2658081 91.4401331 13.2658081 97.7730606 94.1515259 97.7730606"></polygon>
            <polygon id="Path" points="103.946073 30.4324127 3.4717467 30.4324127 3.4717467 36.765567 103.946073 36.765567"></polygon>
            <polygon id="Path" points="103.946073 76.1882597 3.4717467 76.1882597 3.4717467 82.5215111 103.946073 82.5215111"></polygon>
            <polygon id="Path" points="107.417988 45.6851605 0 45.6851605 0 52.018088 107.417988 52.018088"></polygon>
            <polygon id="Path" points="107.417988 60.9357386 0 60.9357386 0 67.26899 107.417988 67.26899"></polygon>
            <path d="M157.926245,83.7831098 C144.682431,83.7831098 137.906519,77.3093209 137.3675,67.213617 L144.913116,67.213617 C145.298453,73.3020612 149.610926,76.6927696 157.926245,76.6927696 C165.395829,76.6927696 169.553326,73.9182887 169.553326,68.986202 C169.553326,64.8244806 167.012561,62.5124132 162.238395,61.5875862 L151.612996,59.5067255 C143.21938,57.8882783 138.522541,53.1103294 138.522541,45.6346447 C138.522541,36.5408366 145.682819,30.606595 156.848531,30.606595 C168.860949,30.606595 175.251525,37.1573879 176.021228,46.7906784 L168.475612,46.7906784 C167.705909,41.2420404 163.70177,37.6968703 156.540521,37.6968703 C149.917967,37.6968703 146.068156,40.4713513 146.068156,45.1722312 C146.068156,48.948608 148.531918,51.2606755 153.229729,52.1855024 L164.163462,54.3434321 C172.557078,55.9618793 177.100236,60.7398281 177.100236,68.6008574 C177.100236,78.3882857 170.015989,83.7831098 157.926245,83.7831098 Z M183.88456,83.0124206 L183.88456,46.1741271 L191.431146,46.1741271 L191.431146,83.0124206 L183.88456,83.0124206 Z M183.653552,38.6216973 L183.653552,30.5295584 L191.661831,30.5295584 L191.661831,38.6216973 L183.653552,38.6216973 Z M199.600548,83.0124206 L199.600548,46.1741271 L206.376461,46.1741271 L207.146164,50.5670552 L207.685183,50.5670552 C210.3806,47.0989541 213.691392,45.403438 217.926216,45.403438 C222.5467,45.403438 226.165502,47.5613676 228.167572,51.2606755 L228.706591,51.2606755 C232.249037,47.2530919 235.86784,45.403438 240.257316,45.403438 C247.725929,45.403438 252.423416,50.4899863 252.423416,58.5051534 L252.423416,83.0124206 L244.87683,83.0124206 L244.87683,59.5837944 C244.87683,55.1141212 241.951375,51.9542957 237.792583,51.9542957 C233.096067,51.9542957 229.784305,55.4994658 229.784305,60.5856903 L229.784305,83.0124206 L222.238689,83.0124206 L222.238689,59.5837944 C222.238689,55.1141212 219.312264,51.9542957 215.154443,51.9542957 C210.457926,51.9542957 207.146164,55.4994658 207.146164,60.5856903 L207.146164,83.0124206 L199.600548,83.0124206 Z M260.061241,97.6548667 L260.061241,46.1741271 L266.298458,46.1741271 L267.068161,50.798262 L268.145875,50.798262 C270.610608,47.2530919 274.460095,45.403438 279.38859,45.403438 C289.090927,45.403438 296.020521,53.3415362 296.020521,64.5932739 C296.020521,75.8450116 289.090927,83.7831098 279.157905,83.7831098 C274.768429,83.7831098 271.0723,82.2417315 268.300527,79.2360438 L267.606856,79.2360438 L267.606856,97.6548667 L260.061241,97.6548667 Z M267.606856,64.5932739 C267.606856,72.5313721 271.457637,77.232252 278.078897,77.232252 C284.470767,77.232252 288.320253,72.5313721 288.320253,64.5932739 C288.320253,56.6554995 284.470767,51.9542957 278.078897,51.9542957 C271.457637,51.9542957 267.606856,56.6554995 267.606856,64.5932739 Z M301.873049,83.0124206 L301.873049,30.5295584 L309.419958,30.5295584 L309.419958,83.0124206 L301.873049,83.0124206 Z M317.595831,83.0124206 L317.595831,46.1741271 L325.141123,46.1741271 L325.141123,83.0124206 L317.595831,83.0124206 Z M317.364823,38.6216973 L317.364823,30.5295584 L325.374072,30.5295584 L325.374072,38.6216973 L317.364823,38.6216973 Z M348.788711,83.7831098 C338.163635,83.7831098 330.922795,76.0762183 330.922795,64.5932739 C330.922795,53.1103294 338.315699,45.403438 348.94401,45.403438 C358.569345,45.403438 364.266896,50.5670552 365.7293,59.6608633 L358.64376,59.6608633 C357.259005,54.5746388 354.101249,51.9542957 349.096074,51.9542957 C342.628496,51.9542957 338.470999,56.5010378 338.470999,64.5932739 C338.470999,72.7625788 342.706146,77.232252 348.94401,77.232252 C354.101249,77.232252 357.259005,74.6119089 358.64376,69.5256844 L365.7293,69.5256844 C364.189247,78.7736303 358.029032,83.7831098 348.788711,83.7831098 Z M370.990072,83.0124206 L370.990072,46.1741271 L378.538275,46.1741271 L378.538275,83.0124206 L370.990072,83.0124206 Z M370.760358,38.6216973 L370.760358,30.5295584 L378.767989,30.5295584 L378.767989,38.6216973 L370.760358,38.6216973 Z M399.950197,83.0124206 C393.712333,83.0124206 390.402512,80.1608708 390.402512,73.6103369 L390.402512,52.3396403 L381.932217,52.3396403 L381.932217,46.1741271 L385.860001,46.1741271 C390.635461,46.1741271 391.172539,43.3996462 391.172539,38.5446284 L391.172539,34.6911827 L397.94748,34.6911827 L397.94748,46.1741271 L408.035478,46.1741271 L408.035478,52.3396403 L397.94748,52.3396403 L397.94748,72.3769104 C397.94748,75.2284602 399.18017,76.5386318 402.80059,76.5386318 L408.035478,76.5386318 L408.035478,83.0124206 L399.950197,83.0124206 Z M428.599723,83.7831098 C417.511985,83.7831098 409.963781,75.6908737 409.963781,64.5932739 C409.963781,53.3415362 417.201386,45.403438 427.907346,45.403438 C438.225058,45.403438 445,52.570847 445,63.5143091 C445,64.3620671 444.92235,65.5951698 444.847936,66.7512035 L417.586399,66.7512035 C418.356426,73.3020612 422.439509,77.3863898 428.829437,77.3863898 C433.756962,77.3863898 436.685005,74.9972535 437.840045,71.5294762 L444.770286,71.5294762 C443.615246,78.6194925 437.532681,83.7831098 428.599723,83.7831098 Z M417.819348,61.0481038 L437.762395,61.0481038 C437.377382,55.4994658 433.527248,51.8001579 427.907346,51.8001579 C422.517159,51.8001579 418.896739,55.3453279 417.819348,61.0481038 Z" id="Shape"></path>
            <polygon id="Path" points="424.513405 40.4493316 430.748033 28.8021785 438.729782 28.8021785 438.729782 29.7760317 430.748033 41.423379 424.513405 41.423379"></polygon>
        </g>
    </g>
</svg>