<svg height="256" viewBox="0 0 256 256" width="256" xmlns="http://www.w3.org/2000/svg"><g fill="#010101"><g transform="translate(62.5 25)"><path d="m89.2144943 0h-47.4475039v7.71490384h47.4475039z"/><path d="m89.2144943 129.953019h-47.4475039v7.714904h47.4475039z"/><path d="m114.804983 18.4954817h-98.6284808v7.7149038h98.6284808z"/><path d="m114.804983 111.401183h-98.6284808v7.714904h98.6284808z"/><path d="m126.746459 37.0754948h-122.51425098v7.7149038h122.51425098z"/><path d="m126.746459 92.8211696h-122.51425098v7.7149034h122.51425098z"/><path d="m130.978667 55.6583256h-130.978667v7.7149039h130.978667z"/><path d="m130.978667 74.2383388h-130.978667v7.7149038h130.978667z"/></g><g transform="translate(13.5 181)"><path d="m17.1664531 41.3172201c-9.97091309 0-16.70591084-5.3360573-17.15779629-13.5963849l-.00865681-.1488971h6.42854669l.01038818.1298521c.41725821 5.233907 4.22625433 8.1148932 10.72751823 8.1148932 7.2769141 0 8.0629524-3.9198033 8.0629524-5.6044184 0-4.7162298-3.4644552-5.5767167-11.0582084-7.4604384-6.59475747-1.6482565-12.69780813-4.1552685-12.69780813-11.2711659 0-6.74884866 5.17157796-10.77772777 13.83531283-10.77772777 8.6637349 0 14.6888743 4.70584161 15.2965823 12.28228127l.0121195.1523598h-6.430278l-.0173136-.1211953c-.6579175-4.52058591-3.6393227-6.81290905-8.8611102-6.81290905-4.6729457 0-7.46216972 1.74867551-7.46216972 4.67640845 0 4.1448804 3.42463382 4.9984418 8.60833132 6.2883064l.5384535.1333149c7.8690398 2.0066484 14.6629039 3.7380103 14.6629039 12.635479 0 5.5005367-3.8072648 11.3785104-14.491499 11.3785104z"/><path d="m36.317047 12.663181h5.663285v27.835105h-5.663285z"/><path d="m81.1523945 40.498286v-17.6044877c0-3.7258908-.8050833-6.205201-4.7318121-6.205201-3.9267287 0-6.3160081 2.6922677-6.3160081 6.8613871v16.9483016h-5.7186884v-17.6044877c0-3.7258908-.8137401-6.205201-4.7872156-6.205201s-6.3160082 2.6922677-6.3160082 6.8613871v16.9483016h-5.6632847v-27.8351051h5.6632847v3.6046954h.1627481l.0103881-.0155822c1.3418055-1.9858721 3.8643998-4.3543752 8.2707158-4.3543752 3.6947262 0 6.1826933 1.6101666 7.3946466 4.7837529l.0086568.0225077h.1506285l.0103882-.0138509c2.5347138-3.2688112 5.4243568-4.7924097 9.0913813-4.7924097 5.5490148 0 8.4836732 3.2359154 8.4836732 9.358011v19.2423561h-5.7186883z"/><path d="m92.1356611 49.806v-37.2367883h5.7617909v3.2669605h.1639747l.0104665-.0138138c1.1356118-1.5005225 3.7644398-4.0163584 8.6086708-4.0163584 7.450381 0 12.455097 5.8950334 12.455097 14.6702413s-5.004716 14.6702413-12.455097 14.6702413c-4.914007 0-7.502714-2.5849048-8.6086708-4.1234153l-.0104665-.0155405h-.1639747v12.7984732zm13.4194099-33c-4.577537 0-7.4194099 3.8307005-7.4194099 10s2.8435699 10 7.4194099 10c5.235833 0 7.58059-5.0223214 7.58059-10s-2.344757-10-7.58059-10z"/><path d="m122.822812 1.523598h5.718688v38.974688h-5.718688z"/><path d="m133.85505 12.663181h5.663285v27.835105h-5.663285z"/><path d="m157.41196 41.3172201c-8.210118 0-13.726237-5.9108695-13.726237-14.7096506s5.495343-14.7096506 13.672565-14.7096506c6.873507 0 11.844247 4.2175976 12.664912 10.7465632l.020777.1592853h-5.659822l-.01212-.1281207c-.287406-2.9744798-2.264621-6.1515288-6.958343-6.1515288-5.945497 0-8.062953 5.2096679-8.062953 10.0834516s2.117456 10.0834517 8.062953 10.0834517c5.945496 0 6.783475-4.4547942 6.958343-6.3696804l.01212-.1281208h5.661553l-.01212.1540912c-.531528 6.4597112-5.720419 10.9716403-12.619896 10.9716403z"/><path d="m173.994944 12.663181h5.663285v27.835105h-5.663285z"/><path d="m216.043429 40.806c-8.448742 0-13.907768-5.7740299-13.907768-14.7094925 0-8.9354627 5.097536-14.2905075 13.637087-14.2905075s13.310523 5.3896716 13.362913 15.5872836v.1419701h-21.348878v.0346269c0 5.0693731 3.328504 8.6099701 8.094237 8.6099701 4.107367 0 6.894509-2.7355223 7.121532-5.2702089l.012224-.1298508h5.651122l-.022702.161015c-.826014 5.9921791-5.771619 9.8634627-12.599767 9.8634627zm8.090452-18v-.0323326c0-4.1030023-3.232395-6.9676674-7.860274-6.9676674-4.627878 0-8.137946 2.9309469-8.137946 6.9676674v.0323326h16z"/><path d="m194.717615 40.498286c-4.85647 0-7.117629-2.2248001-7.117629-7.0016275l-.005194-.48305v-15.6532428h-4.04273v-4.626199h.219883c1.717511.0017314 3.026421-.1610167 3.822847-.9626372.986876-.9920704 1.168669-2.94677795 1.151356-5.98878079v-1.84043769h4.565601v8.79185568h8.243014v4.626199h-8.243014v15.1390283l-.006925.0709859c-.013851.9262786.218151 1.6240174.709858 2.124381.905502.9193532 2.581461.9955331 4.082551.9955331l2.126113-.0103882c.467467 0 .831053.0086568 1.153087.0311645l.133315.0086568v4.7785589h-6.790402z"/><path d="m36.156896 1.59718134h5.9870494v5.66328474h-5.9870494z" transform="matrix(0 1 -1 0 43.579245 -34.721597)"/><path d="m133.693168 1.59718134h5.987049v5.66328474h-5.987049z" transform="matrix(0 1 -1 0 141.115517 -132.257869)"/><path d="m173.833062 1.59718134h5.987049v5.66328474h-5.987049z" transform="matrix(0 1 -1 0 181.255411 -172.397763)"/><path d="m213.625818 9.37878735v-.6492607l4.657364-8.72952665h5.922989v.68215658l-5.962811 8.69663077z"/></g></g></svg>