<?xml version="1.0" encoding="UTF-8"?>
<svg width="256px" height="256px" viewBox="0 0 256 256" version="1.1" xmlns="http://www.w3.org/2000/svg" xmlns:xlink="http://www.w3.org/1999/xlink">
    <title>logo-square-white-full</title>
    <g id="logo-square-white-full" stroke="none" stroke-width="1" fill="none" fill-rule="evenodd">
        <g id="Simplicité_Logo_White" transform="translate(13.500000, 25.000000)" fill="#FFFFFF" fill-rule="nonzero">
            <g id="Group" transform="translate(49.000000, 0.000000)">
                <polygon id="Path" points="89.2144943 0 41.7669904 0 41.7669904 7.71490384 89.2144943 7.71490384"></polygon>
                <polygon id="Path" points="89.2144943 129.953019 41.7669904 129.953019 41.7669904 137.667923 89.2144943 137.667923"></polygon>
                <polygon id="Path" points="114.804983 18.4954817 16.1765022 18.4954817 16.1765022 26.2103855 114.804983 26.2103855"></polygon>
                <polygon id="Path" points="114.804983 111.401183 16.1765022 111.401183 16.1765022 119.116087 114.804983 119.116087"></polygon>
                <polygon id="Path" points="126.746459 37.0754948 4.23220802 37.0754948 4.23220802 44.7903986 126.746459 44.7903986"></polygon>
                <polygon id="Path" points="126.746459 92.8211696 4.23220802 92.8211696 4.23220802 100.536073 126.746459 100.536073"></polygon>
                <polygon id="Path" points="130.978667 55.6583256 0 55.6583256 0 63.3732295 130.978667 63.3732295"></polygon>
                <polygon id="Path" points="130.978667 74.2383388 0 74.2383388 0 81.9532426 130.978667 81.9532426"></polygon>
            </g>
            <g id="Simplicité" transform="translate(0.000000, 156.000000)">
                <path d="M17.1664531,41.3172201 C7.19554001,41.3172201 0.460542263,35.9811628 0.00865680945,27.7208352 L-7.10542736e-15,27.5719381 L6.42854669,27.5719381 L6.43893487,27.7017902 C6.85619308,32.9356972 10.6651892,35.8166834 17.1664531,35.8166834 C24.4433672,35.8166834 25.2294055,31.8968801 25.2294055,30.212265 C25.2294055,25.4960352 21.7649503,24.6355483 14.1711971,22.7518266 C7.57643963,21.1035701 1.47338897,18.5965581 1.47338897,11.4806607 C1.47338897,4.73181204 6.64496693,0.702932927 15.3087018,0.702932927 C23.9724367,0.702932927 29.9975761,5.40877454 30.6052841,12.9852142 L30.6174036,13.137574 L24.1871256,13.137574 L24.169812,13.0163787 C23.5118945,8.49579279 20.5304893,6.20346965 15.3087018,6.20346965 C10.6357561,6.20346965 7.84653208,7.95214516 7.84653208,10.8798781 C7.84653208,15.0247585 11.2711659,15.8783199 16.4548634,17.1681845 L16.9933169,17.3014994 C24.8623567,19.3081478 31.6562208,21.0395097 31.6562208,29.9369784 C31.6562208,35.4375151 27.848956,41.3154888 17.1647218,41.3154888 L17.1664531,41.3172201 Z" id="Path"></path>
                <rect id="Rectangle" x="36.317047" y="12.6631809" width="5.66328474" height="27.8351051"></rect>
                <path d="M81.1523945,40.498286 L81.1523945,22.8937983 C81.1523945,19.1679075 80.3473112,16.6885973 76.4205824,16.6885973 C72.4938537,16.6885973 70.1045743,19.380865 70.1045743,23.5499844 L70.1045743,40.498286 L64.3858859,40.498286 L64.3858859,22.8937983 C64.3858859,19.1679075 63.5721458,16.6885973 59.5986703,16.6885973 C55.6251948,16.6885973 53.2826621,19.380865 53.2826621,23.5499844 L53.2826621,40.498286 L47.6193774,40.498286 L47.6193774,12.6631809 L53.2826621,12.6631809 L53.2826621,16.2678763 L53.4454102,16.2678763 L53.4557983,16.2522941 C54.7976038,14.266422 57.3201981,11.8979189 61.7265141,11.8979189 C65.4212403,11.8979189 67.9092074,13.5080855 69.1211607,16.6816718 L69.1298175,16.7041795 L69.280446,16.7041795 L69.2908342,16.6903286 C71.825548,13.4215174 74.715191,11.8979189 78.3822155,11.8979189 C83.9312303,11.8979189 86.8658887,15.1338343 86.8658887,21.2559299 L86.8658887,40.498286 L81.1472004,40.498286 L81.1523945,40.498286 Z" id="Path"></path>
                <path d="M92.1356611,49.806 L92.1356611,12.5692117 L97.897452,12.5692117 L97.897452,15.8361722 L98.0614267,15.8361722 L98.0718932,15.8223584 C99.207505,14.3218359 101.836333,11.806 106.680564,11.806 C114.130945,11.806 119.135661,17.7010334 119.135661,26.4762413 C119.135661,35.2514492 114.130945,41.1464826 106.680564,41.1464826 C101.766557,41.1464826 99.17785,38.5615778 98.0718932,37.0230673 L98.0614267,37.0075268 L97.897452,37.0075268 L97.897452,49.806 L92.1356611,49.806 Z M105.555071,16.806 C100.977534,16.806 98.1356611,20.6367005 98.1356611,26.806 C98.1356611,32.9752995 100.979231,36.806 105.555071,36.806 C110.790904,36.806 113.135661,31.7836786 113.135661,26.806 C113.135661,21.8283214 110.790904,16.806 105.555071,16.806 L105.555071,16.806 Z" id="Shape"></path>
                <rect id="Rectangle" x="122.822812" y="1.52359846" width="5.71868832" height="38.9746875"></rect>
                <rect id="Rectangle" x="133.85505" y="12.6631809" width="5.66328474" height="27.8351051"></rect>
                <path d="M157.41196,41.3172201 C149.201842,41.3172201 143.685723,35.4063506 143.685723,26.6075695 C143.685723,17.8087884 149.181066,11.8979189 157.358288,11.8979189 C164.231795,11.8979189 169.202535,16.1155165 170.0232,22.6444821 L170.043977,22.8037674 L164.384155,22.8037674 L164.372035,22.6756467 C164.084629,19.7011669 162.107414,16.5241179 157.413692,16.5241179 C151.468195,16.5241179 149.350739,21.7337858 149.350739,26.6075695 C149.350739,31.4813532 151.468195,36.6910212 157.413692,36.6910212 C163.359188,36.6910212 164.197167,32.236227 164.372035,30.3213408 L164.384155,30.19322 L170.045708,30.19322 L170.033588,30.3473112 C169.50206,36.8070224 164.313169,41.3189515 157.413692,41.3189515 L157.41196,41.3172201 Z" id="Path"></path>
                <rect id="Rectangle" x="173.994944" y="12.6631809" width="5.66328474" height="27.8351051"></rect>
                <path d="M216.043429,40.806 C207.594687,40.806 202.135661,35.0319701 202.135661,26.0965075 C202.135661,17.1610448 207.233197,11.806 215.772748,11.806 C224.312299,11.806 229.083271,17.1956716 229.135661,27.3932836 L229.135661,27.5352537 C229.135661,27.5352537 207.786783,27.5352537 207.786783,27.5352537 L207.786783,27.5698806 C207.786783,32.6392537 211.115287,36.1798507 215.88102,36.1798507 C219.988387,36.1798507 222.775529,33.4443284 223.002552,30.9096418 L223.014776,30.779791 L228.665898,30.779791 L228.643196,30.940806 C227.817182,36.9329851 222.871577,40.8042687 216.043429,40.8042687 L216.043429,40.806 Z M224.133881,22.806 L224.133881,22.7736674 C224.133881,18.6706651 220.901486,15.806 216.273607,15.806 C211.645729,15.806 208.135661,18.7369469 208.135661,22.7736674 L208.135661,22.806 L224.135661,22.806 L224.133881,22.806 Z" id="Shape"></path>
                <path d="M194.717615,40.498286 C189.861145,40.498286 187.599986,38.2734859 187.599986,33.4966585 L187.594792,33.0136085 L187.594792,17.3603657 L183.552062,17.3603657 L183.552062,12.7341667 L183.771945,12.7341667 C185.489456,12.7358981 186.798366,12.57315 187.594792,11.7715295 C188.581668,10.7794591 188.763461,8.82475155 188.746148,5.78274871 L188.746148,3.94231102 L193.311749,3.94231102 L193.311749,12.7341667 L201.554763,12.7341667 L201.554763,17.3603657 L193.311749,17.3603657 L193.311749,32.499394 L193.304824,32.5703799 C193.290973,33.4966585 193.522975,34.1943973 194.014682,34.6947609 C194.920184,35.6141141 196.596143,35.690294 198.097233,35.690294 L200.223346,35.6799058 C200.690813,35.6799058 201.054399,35.6885626 201.376433,35.7110703 L201.509748,35.7197271 L201.509748,40.498286 L194.719346,40.498286 L194.717615,40.498286 Z" id="Path"></path>
                <polygon id="Rectangle" transform="translate(39.150421, 4.428824) rotate(90.000000) translate(-39.150421, -4.428824) " points="36.156896 1.59718134 42.1439454 1.59718134 42.1439454 7.26046608 36.156896 7.26046608"></polygon>
                <polygon id="Rectangle" transform="translate(136.686693, 4.428824) rotate(90.000000) translate(-136.686693, -4.428824) " points="133.693168 1.59718134 139.680217 1.59718134 139.680217 7.26046608 133.693168 7.26046608"></polygon>
                <polygon id="Rectangle" transform="translate(176.826587, 4.428824) rotate(90.000000) translate(-176.826587, -4.428824) " points="173.833062 1.59718134 179.820111 1.59718134 179.820111 7.26046608 173.833062 7.26046608"></polygon>
                <polygon id="Path" points="213.625818 9.37878735 213.625818 8.72952665 218.283182 -2.84217094e-14 224.206171 -2.84217094e-14 224.206171 0.682156584 218.24336 9.37878735"></polygon>
            </g>
        </g>
    </g>
</svg>