<?xml version="1.0" encoding="UTF-8"?>
<svg width="250px" height="166px" viewBox="0 0 250 166" version="1.1" xmlns="http://www.w3.org/2000/svg" xmlns:xlink="http://www.w3.org/1999/xlink">
    <title>PDF publication</title>
    <defs>
        <path d="M0,0 L250,0 L250,166 L0,166 L0,0 Z" id="path-1"></path>
    </defs>
    <g id="PDF-Publication" stroke="none" fill="none" xlink:href="#path-1" fill-rule="evenodd" stroke-width="1">
        <g id="undraw_programmer_imem" transform="translate(0, 34)">
            <path d="M230.681382,105.136756 C230.403071,105.736564 230.12556,106.328375 229.848848,106.912188 C229.416987,107.819098 228.990723,108.708413 228.570058,109.580134 C228.382917,109.966411 228.195777,110.345489 228.013436,110.724568 C225.950096,114.940019 224.023512,118.668426 222.387236,121.734645 C219.363014,127.393596 213.493749,130.953235 207.077735,131.019674 L170.693378,131.415547 L170.309501,131.415547 L167.190499,131.449136 L164.522553,131.477927 L156.341171,131.566699 L156.010077,131.566699 L151.84501,131.612284 L151.71785,131.612284 L126.046065,131.890595 L103.130998,132.130518 L100.465451,132.159309 L83.9107486,132.339251 L83.8915547,132.339251 L73.1549904,132.454415 L73.0398273,132.454415 L39.090691,132.821497 L28.9347409,132.931862 C28.069978,132.941736 27.2054253,132.898468 26.3459693,132.802303 L26.3459693,132.802303 C26.053263,132.768714 25.7605566,132.730326 25.4702495,132.684741 C20.7336821,131.953585 16.3906253,129.621594 13.1645873,126.077255 C8.79558541,121.271593 5.61660269,115.664587 3.48128599,109.580134 C3.17258477,108.702015 2.8846769,107.8127 2.61756238,106.912188 C-4.77447217,81.9241843 4.23704415,49.6857006 20.4558541,28.1118042 C21.1356366,27.2096929 21.8266155,26.3299744 22.5287908,25.4726488 L22.5455854,25.4534549 C27.5335893,19.3306142 33.1261996,14.2154511 39.0834933,10.578215 C49.6401152,4.121881 61.3363724,2.30326296 72.840691,7.7231286 C82.5743762,12.3104607 91.6626679,14.4673704 100.472649,15.0527831 C101.362764,15.1103647 102.252879,15.1535509 103.138196,15.1799424 C123.346929,15.815739 142.286468,8.5340691 164.527351,3.83397313 C165.412668,3.64683301 166.300384,3.46209213 167.195298,3.28694818 C183.06142,0.129558541 200.662188,-1.53550864 221.59309,1.96497121 C223.767654,2.32021652 225.913448,2.83341099 228.013436,3.50047985 C228.93634,3.79798464 229.825656,4.11788228 230.681382,4.46017274 C240.671785,8.52447217 246.120441,16.0340691 248.435701,25.443858 C248.65483,26.3171785 248.84437,27.2056942 249.004319,28.109405 C253.109405,50.743762 241.086852,82.8502879 230.681382,105.136756 Z" id="Path" fill="#F2F2F2" fill-rule="nonzero"></path>
            <path d="M119.246641,106.912188 C119.149924,107.809586 119.000109,108.700463 118.797985,109.580134 L141.278791,109.580134 L141.278791,106.912188 L119.246641,106.912188 Z M100.472649,121.981766 L103.138196,121.960173 L103.138196,115.369482 C102.224088,115.328695 101.333973,115.287908 100.472649,115.244722 L100.472649,121.981766 Z M44.5897313,106.912188 L44.5897313,109.580134 L92.2144914,109.580134 L92.2144914,106.912188 L44.5897313,106.912188 Z M248.447697,25.4534549 L230.693378,25.4534549 L230.693378,4.46257198 C229.837652,4.11548305 228.948337,3.79558541 228.025432,3.50287908 L228.025432,25.4534549 L167.195298,25.4534549 L167.195298,3.27975048 C166.300384,3.45489443 165.412668,3.63963532 164.527351,3.82677543 L164.527351,25.4534549 L103.138196,25.4534549 L103.138196,15.1727447 C102.252879,15.1463532 101.362764,15.103167 100.472649,15.0455854 L100.472649,25.4534549 L39.0834933,25.4534549 L39.0834933,10.578215 C33.1261996,14.2154511 27.5335893,19.3306142 22.5455854,25.4534549 L22.5287908,25.4534549 L22.5287908,25.4726488 C21.825016,26.3363724 21.1340371,27.2160909 20.4558541,28.1118042 L22.5287908,28.1118042 L22.5287908,106.912188 L2.61516315,106.912188 C2.88067818,107.8127 3.16858605,108.702015 3.47888676,109.580134 L22.5263916,109.580134 L22.5263916,132.041747 C23.4847449,132.334853 24.4629629,132.558561 25.4534549,132.711132 C25.743762,132.756718 26.0364683,132.795106 26.3291747,132.828695 L26.3291747,132.828695 C27.1886307,132.92486 28.0531834,132.968127 28.9179463,132.958253 L39.0738964,132.847889 L39.0738964,109.575336 L100.472649,109.575336 L100.472649,132.178503 L103.138196,132.149712 L103.138196,109.580134 L164.527351,109.580134 L164.527351,131.49952 L167.195298,131.470729 L167.195298,109.580134 L228.013436,109.580134 L228.013436,110.724568 C228.195777,110.345489 228.382917,109.966411 228.570058,109.580134 C228.990723,108.708413 229.416987,107.819098 229.848848,106.912188 C230.12556,106.329974 230.403071,105.738164 230.681382,105.136756 L230.681382,28.1214012 L249.016315,28.1214012 C248.854766,27.2112924 248.665227,26.321977 248.447697,25.4534549 Z M39.0834933,106.912188 L39.0834933,28.1118042 L100.472649,28.1118042 L100.472649,106.912188 L39.0834933,106.912188 Z M103.142994,106.912188 L103.142994,28.1118042 L164.527351,28.1118042 L164.527351,106.912188 L103.142994,106.912188 Z M228.018234,106.912188 L167.195298,106.912188 L167.195298,28.1118042 L228.013436,28.1118042 L228.018234,106.912188 Z" id="Shape" fill="#000000" fill-rule="nonzero" opacity="0.1"></path>
            <polygon id="Path" fill="#65617D" fill-rule="nonzero" points="207.075336 128.035029 207.075336 131.154031 170.6262 131.489923 170.237524 131.497121 156.384357 131.62428 156.053263 131.629079 151.84261 131.665067 151.71785 131.665067 126.050864 131.902591 83.9179463 132.293666 83.8819578 132.293666 73.1693858 132.394434 73.0542226 132.396833 25.4534549 132.833493 25.4534549 129.234645 36.6458733 122.516795 59.1026871 122.329655 59.5825336 122.327255 59.7408829 122.324856 60.2207294 122.317658 71.0028791 122.228887 71.4851248 122.226488 71.6386756 122.224088 72.1185221 122.221689 75.5758157 122.192898 75.6669866 122.190499 84.1962572 122.118522 84.2658349 122.118522 150.820537 121.557102 152.449616 121.545106 152.612764 121.545106 153.855566 121.533109 162.888676 121.458733 163.368522 121.451536 163.81238 121.446737 164.042706 121.446737 166.852207 121.425144 167.408829 121.417946 168.15499 121.413148 170.494242 121.391555 174.205854 121.360365 174.685701 121.355566 175.520633 121.350768 175.676583 121.350768 193.601248 121.197217"></polygon>
            <polygon id="Path" fill="#000000" fill-rule="nonzero" opacity="0.2" points="207.075336 128.035029 207.075336 131.154031 170.6262 131.489923 170.237524 131.497121 156.384357 131.62428 156.053263 131.629079 151.84261 131.665067 151.71785 131.665067 126.050864 131.902591 83.9179463 132.293666 83.8819578 132.293666 73.1693858 132.394434 73.0542226 132.396833 25.4534549 132.833493 25.4534549 129.234645 36.6458733 122.516795 59.1026871 122.329655 59.5825336 122.327255 59.7408829 122.324856 60.2207294 122.317658 71.0028791 122.228887 71.4851248 122.226488 71.6386756 122.224088 72.1185221 122.221689 75.5758157 122.192898 75.6669866 122.190499 84.1962572 122.118522 84.2658349 122.118522 150.820537 121.557102 152.449616 121.545106 152.612764 121.545106 153.855566 121.533109 162.888676 121.458733 163.368522 121.451536 163.81238 121.446737 164.042706 121.446737 166.852207 121.425144 167.408829 121.417946 168.15499 121.413148 170.494242 121.391555 174.205854 121.360365 174.685701 121.355566 175.520633 121.350768 175.676583 121.350768 193.601248 121.197217"></polygon>
            <path d="M71.041267,116.041267 L71.041267,121.916987 C71.0415311,122.485034 70.7146448,123.002448 70.2015355,123.246161 C70.0143496,123.336922 69.8097163,123.386034 69.6017274,123.390115 L61.2284069,123.567658 C61.0047836,123.573022 60.7829872,123.526198 60.5806142,123.430902 C60.0581847,123.191447 59.7234727,122.669222 59.7240874,122.09453 L59.7240874,116.041267 L71.041267,116.041267 Z" id="Path" fill="#3F3D56" fill-rule="nonzero"></path>
            <path d="M71.041267,116.041267 L71.041267,121.916987 C71.0415311,122.485034 70.7146448,123.002448 70.2015355,123.246161 C70.0143496,123.336922 69.8097163,123.386034 69.6017274,123.390115 L61.2284069,123.567658 C61.0047836,123.573022 60.7829872,123.526198 60.5806142,123.430902 C60.0581847,123.191447 59.7234727,122.669222 59.7240874,122.09453 L59.7240874,116.041267 L71.041267,116.041267 Z" id="Path" fill="#000000" fill-rule="nonzero" opacity="0.1"></path>
            <path d="M71.5211134,116.041267 L71.5211134,121.916987 C71.5213776,122.485034 71.1944913,123.002448 70.681382,123.246161 C70.494196,123.336922 70.2895627,123.386034 70.0815739,123.390115 L61.7082534,123.567658 C61.48463,123.573022 61.2628336,123.526198 61.0604607,123.430902 C60.5380312,123.191447 60.2033192,122.669222 60.2039339,122.09453 L60.2039339,116.041267 L71.5211134,116.041267 Z" id="Path" fill="#3F3D56" fill-rule="nonzero"></path>
            <rect id="Rectangle" fill="#3F3D56" fill-rule="nonzero" x="163.368522" y="116.038868" width="11.3171785" height="7.55758157"></rect>
            <rect id="Rectangle" fill="#000000" fill-rule="nonzero" opacity="0.1" x="163.368522" y="116.038868" width="11.3171785" height="7.55758157"></rect>
            <rect id="Rectangle" fill="#3F3D56" fill-rule="nonzero" x="162.888676" y="116.038868" width="11.3171785" height="7.55758157"></rect>
            <polygon id="Path" fill="#000000" fill-rule="nonzero" opacity="0.1" points="71.518714 116.038868 71.518714 117.231286 60.2015355 117.533589 60.2015355 116.038868"></polygon>
            <path d="M91.4947217,74.9424184 L91.4947217,115.297505 C91.4886845,115.809132 91.0823213,116.22605 90.5710173,116.245202 L44.5897313,117.46881 L44.5777351,117.46881 C44.0570398,117.462341 43.6365074,117.041809 43.6300384,116.521113 L43.6300384,74.9424184 C43.6365074,74.4217231 44.0570398,74.0011907 44.5777351,73.9947217 L90.547025,73.9947217 C91.0677203,74.0011907 91.4882527,74.4217231 91.4947217,74.9424184 Z" id="Path" fill="#65617D" fill-rule="nonzero"></path>
            <path d="M44.5897313,73.9947217 L44.5897313,117.46881 L44.5777351,117.46881 C44.0570398,117.462341 43.6365074,117.041809 43.6300384,116.521113 L43.6300384,74.9424184 C43.6365074,74.4217231 44.0570398,74.0011907 44.5777351,73.9947217 L44.5897313,73.9947217 Z" id="Path" fill="#000000" fill-rule="nonzero" opacity="0.1"></path>
            <polygon id="Path" fill="#387ED1" fill-rule="nonzero" points="46.6866603 76.5714971 89.2730326 76.5714971 89.2730326 112.140115 46.6866603 113.099808"></polygon>
            <polygon id="Path" fill="#000000" fill-rule="nonzero" opacity="0.1" points="174.205854 116.038868 174.205854 117.576775 162.888676 117.274472 162.888676 116.038868"></polygon>
            <path d="M189.143474,74.9424184 L189.143474,116.521113 C189.136907,117.046446 188.709155,117.46881 188.183781,117.46881 L188.183781,117.46881 L142.192898,116.245202 C141.681594,116.22605 141.275231,115.809132 141.269194,115.297505 L141.269194,74.9424184 C141.275663,74.4217231 141.696195,74.0011907 142.216891,73.9947217 L188.18618,73.9947217 C188.71062,73.9959918 189.13692,74.4180185 189.143474,74.9424184 Z" id="Path" fill="#65617D" fill-rule="nonzero"></path>
            <path d="M189.143474,74.9424184 L189.143474,116.521113 C189.136907,117.046446 188.709155,117.46881 188.183781,117.46881 L188.183781,117.46881 L188.183781,73.9947217 L188.183781,73.9947217 C188.709155,73.9947217 189.136907,74.4170854 189.143474,74.9424184 Z" id="Path" fill="#000000" fill-rule="nonzero" opacity="0.1"></path>
            <polygon id="Path" fill="#387ED1" fill-rule="nonzero" points="186.082054 76.5714971 143.495681 76.5714971 143.495681 112.140115 186.082054 113.099808"></polygon>
            <path d="M140.079175,74.9424184 L140.079175,115.297505 C140.073137,115.809132 139.666774,116.22605 139.15547,116.245202 L93.1741843,117.46881 L93.1741843,117.46881 C92.6488102,117.46881 92.2210585,117.046446 92.2144914,116.521113 L92.2144914,74.9424184 C92.2209604,74.4217231 92.6414927,74.0011907 93.1621881,73.9947217 L139.131478,73.9947217 C139.652173,74.0011907 140.072706,74.4217231 140.079175,74.9424184 Z" id="Path" fill="#65617D" fill-rule="nonzero"></path>
            <polygon id="Path" fill="#387ED1" fill-rule="nonzero" points="95.2711132 76.5714971 137.857486 76.5714971 137.857486 112.140115 95.2711132 113.099808"></polygon>
            <polygon id="Path" fill="#000000" fill-rule="nonzero" opacity="0.1" points="207.075336 128.035029 207.075336 131.154031 170.6262 131.489923 170.237524 131.497121 156.384357 131.62428 156.053263 131.629079 151.84261 131.665067 151.71785 131.665067 126.050864 131.902591 83.9179463 132.293666 83.8819578 132.293666 73.1693858 132.394434 73.0542226 132.396833 25.4534549 132.833493 25.4534549 129.234645 74.0403071 128.915547 74.1554702 128.915547 83.9899232 128.848369 84.0355086 128.848369 151.952975 128.399712 152.022553 128.399712 152.06334 128.397313 152.176104 128.397313 153.325336 128.390115 153.675624 128.390115 171.547505 128.270154 172.603167 128.265355 172.838292 128.262956"></polygon>
            <circle id="Oval" fill="#FBBEBE" fill-rule="nonzero" cx="116.90499" cy="71.5331094" r="12.3152591"></circle>
            <path d="M129.222649,90.4894434 C129.222649,90.4894434 105.350288,93.3685221 107.629559,90.4894434 C108.454894,89.4481766 108.682821,86.3627639 108.637236,82.8478887 C108.622841,81.7802303 108.584453,80.6741843 108.529271,79.5729367 C108.265355,74.2946257 107.629559,69.1362764 107.629559,69.1362764 C107.629559,69.1362764 128.502879,59.2994242 126.103647,67.096929 C125.143954,70.2471209 125.458253,74.6713052 126.18762,78.8243762 C126.401152,80.0359885 126.648273,81.2236084 126.90739,82.3512476 C127.539765,85.1017102 128.31253,87.8179968 129.222649,90.4894434 L129.222649,90.4894434 Z" id="Path" fill="#FBBEBE" fill-rule="nonzero"></path>
            <path d="M121.432342,89.5129559 C124.193858,89.0019194 127.118522,88.0734165 129.716891,89.1434741 C130.400672,89.4241843 131.029271,89.834453 131.729846,90.0695777 C132.430422,90.3047025 133.198177,90.3622841 133.927543,90.5278311 C136.489923,91.1084453 138.567658,93.0590211 139.901631,95.3262956 C141.235605,97.5935701 141.926583,100.158349 142.603167,102.696737 L144.258637,108.893954 C145.698177,114.28023 147.137716,119.712092 147.471209,125.28071 C127.429612,126.427862 107.342242,126.542377 87.2888676,125.6238 C88.5940499,123.142994 89.928023,120.511036 89.8176583,117.706334 C89.7072937,114.901631 88.0926104,112.135317 88.6756238,109.371401 C89.0475048,107.610365 90.2519194,106.158829 90.9884837,104.520154 C93.0878119,99.8368522 91.4539347,93.5340691 95.1439539,89.96881 C96.8042226,88.3661228 99.2226488,87.7591171 101.533109,87.8358925 C104.479367,87.934261 107.495202,88.853167 110.410269,89.3018234 C114.143474,89.8680422 117.670345,90.2039347 121.432342,89.5129559 Z" id="Path" fill="#FF6584" fill-rule="nonzero"></path>
            <path d="M152.838292,116.185221 L152.814299,116.528311 L152.814299,116.552303 L152.773512,117.104127 L152.454415,121.545106 L152.068138,126.895393 L151.957774,128.402111 L151.71785,131.626679 L151.71785,131.667466 L126.046065,131.90739 L83.9179463,132.363244 L83.9179463,132.564779 L83.884357,132.564779 L83.884357,132.363244 L83.884357,132.296065 L83.9923225,128.850768 L84.1986564,122.118522 L84.3761996,116.410749 L84.3929942,115.842131 C84.4142079,115.148519 84.7197907,114.494169 85.2380193,114.032664 C85.7562479,113.571159 86.4414918,113.343135 87.1329175,113.402111 C88.2653551,113.498081 89.7360845,113.615643 91.4947217,113.740403 L92.2144914,113.793186 C102.370441,114.49856 121.139635,115.410269 140.079175,114.273033 C140.477447,114.25144 140.878119,114.227447 141.278791,114.198656 C144.215451,114.013916 147.149712,113.776392 150.055182,113.478887 C150.79871,113.400984 151.53856,113.656386 152.075688,114.176382 C152.612817,114.696378 152.89206,115.427563 152.838292,116.173225 L152.838292,116.185221 Z" id="Path" fill="#000000" fill-rule="nonzero" opacity="0.1"></path>
            <path d="M83.9107486,132.564779 L83.9107486,132.363244 L126.046065,131.90499 L151.71785,131.665067 L151.789827,131.665067 L151.789827,131.62428 L152.02975,128.399712 L152.132917,126.960173 L152.526392,121.535509 L152.835893,117.240883 L152.835893,117.135317 C152.850198,116.937426 152.841341,116.738542 152.809501,116.542706 C152.810843,116.534765 152.810843,116.526655 152.809501,116.518714 C152.743592,116.113802 152.57877,115.731414 152.329655,115.40547 C151.792571,114.71675 150.938115,114.353924 150.069578,114.445777 C147.164107,114.743282 144.229846,114.980806 141.293186,115.165547 C140.892514,115.194338 140.491843,115.21833 140.09357,115.239923 C121.154031,116.365163 102.384837,115.453455 92.2288868,114.760077 L91.5091171,114.707294 C89.7504798,114.582534 88.2797505,114.46737 87.1473129,114.369002 C85.8570043,114.260122 84.6929292,115.143534 84.4505758,116.415547 C84.4263509,116.545439 84.4119149,116.676967 84.4073896,116.809021 L84.2442418,122.12572 L84.0211132,128.860365 L83.915547,132.305662 L83.915547,132.372841 L83.915547,132.574376 L83.9107486,132.564779 Z" id="Path" fill="#3F3D56" fill-rule="nonzero"></path>
            <path d="M152.910269,117.867083 L152.615163,121.545106 L152.176104,127.027351 L152.065739,128.399712 L151.825816,131.473129 L151.81142,131.626679 L151.81142,131.667466 L151.81142,131.667466 L151.775432,132.022553 L151.801823,131.667466 L151.732246,131.667466 L126.060461,131.90739 L83.9179463,132.363244 L83.9179463,132.296065 L84.0355086,128.850768 L84.2754319,122.118522 L84.4289827,117.643954 C84.4443236,117.126772 84.7206998,116.652597 85.1631478,116.384357 C85.4348299,116.217849 85.7524903,116.142216 86.0700576,116.168426 C86.5738964,116.209213 87.1928983,116.257198 87.9150672,116.309981 C89.0882917,116.396353 90.5350288,116.497121 92.2192898,116.602687 C95.3382917,116.799424 99.2514395,117.010557 103.735605,117.183301 C116.211612,117.663148 133.054223,117.823896 149.052303,116.422745 C149.772073,116.360365 150.515835,116.290787 151.242802,116.221209 C151.530554,116.192513 151.820472,116.247497 152.077735,116.379559 C152.150606,116.415856 152.219718,116.459252 152.284069,116.509117 C152.492929,116.660454 152.658394,116.863976 152.763916,117.099328 C152.788393,117.146152 152.808472,117.195147 152.823896,117.245681 C152.89597,117.44446 152.925398,117.656183 152.910269,117.867083 Z" id="Path" fill="#000000" fill-rule="nonzero" opacity="0.1"></path>
            <path d="M71.5211134,121.151631 L71.5211134,121.916987 C71.5213776,122.485034 71.1944913,123.002448 70.681382,123.246161 L61.0604607,123.430902 C60.5380312,123.191447 60.2033192,122.669222 60.2039339,122.09453 L60.2039339,121.37476 L71.5211134,121.151631 Z" id="Path" fill="#000000" fill-rule="nonzero" opacity="0.1"></path>
            <polygon id="Path" fill="#3F3D56" fill-rule="nonzero" points="71.6386756 123.697217 59.1026871 123.93714 59.1026871 121.857006 71.6386756 121.617083"></polygon>
            <polygon id="Path" fill="#000000" fill-rule="nonzero" opacity="0.1" points="71.6386756 123.697217 59.1026871 123.93714 59.1026871 121.857006 71.6386756 121.617083"></polygon>
            <polygon id="Path" fill="#3F3D56" fill-rule="nonzero" points="72.1185221 123.697217 59.5825336 123.93714 59.5825336 121.857006 72.1185221 121.617083"></polygon>
            <path d="M162.960652,121.631478 L162.960652,122.396833 C162.960388,122.96488 163.287275,123.482294 163.800384,123.726008 L173.421305,123.910749 C173.943735,123.671294 174.278447,123.149068 174.277832,122.574376 L174.277832,121.854607 L162.960652,121.631478 Z" id="Path" fill="#000000" fill-rule="nonzero" opacity="0.1"></path>
            <polygon id="Path" fill="#000000" fill-rule="nonzero" opacity="0.1" points="162.840691 124.177063 175.376679 124.416987 175.376679 122.336852 162.840691 122.096929"></polygon>
            <polygon id="Path" fill="#3F3D56" fill-rule="nonzero" points="162.360845 124.177063 174.896833 124.416987 174.896833 122.336852 162.360845 122.096929"></polygon>
            <path d="M109.114683,75.3071017 C109.133877,76.9865643 108.356526,78.5700576 107.696737,80.1223608 C105.294492,85.776929 104.254073,91.9167145 104.659309,98.047025 C104.834453,100.68618 105.278311,103.325336 104.834453,105.940499 C104.390595,108.555662 102.8119,111.163628 100.275912,111.914587 C104.481766,114.421785 110.175144,114.157869 114.133877,111.276392 C116.242802,109.740883 117.814299,107.598369 119.352207,105.491843 C119.169548,109.275921 118.073909,112.959603 116.158829,116.228407 C123.159337,115.608577 129.568728,112.049451 133.795585,106.434741 C134.829655,105.040787 135.729367,103.510077 136.127639,101.821017 C136.869002,98.7020154 135.834933,95.4606526 135.045585,92.3440499 C134.385963,89.7386886 133.891537,87.0942701 133.565259,84.4265835 C133.462092,83.5724568 133.378119,82.6943378 133.589251,81.859405 C133.829175,80.8829175 134.46977,80.0575816 134.942418,79.1674664 C136.285988,76.6386756 136.317179,73.5772553 135.628599,70.7989443 C134.940019,68.0206334 133.591651,65.4582534 132.255278,62.9270633 C131.185221,60.8973129 130.023992,58.7739923 128.066219,57.5815739 C126.84261,56.8378119 125.427063,56.5283109 124.016315,56.2284069 L117.929463,54.9256238 C116.597889,54.6401152 115.227927,54.3546065 113.881958,54.5633397 C111.609885,54.9184261 110.009597,56.559501 108.603647,58.243762 C107.502399,59.5537428 104.810461,62.0129559 104.620921,63.7284069 C104.448177,65.309501 105.84453,67.9582534 106.082054,69.6257198 C106.393954,71.7850288 106.614683,71.0652591 107.833493,72.3896353 C108.603647,73.2101727 109.100288,74.1578695 109.114683,75.3071017 Z" id="Path" fill="#3F3D56" fill-rule="nonzero"></path>
            <path d="M72.0393474,80.0359885 L48.1429942,80.0359885 C48.0767413,80.0359885 48.0230326,79.9822798 48.0230326,79.9160269 C48.0230326,79.8497739 48.0767413,79.7960653 48.1429942,79.7960653 L72.0393474,79.7960653 C72.1056004,79.7960653 72.159309,79.8497739 72.159309,79.9160269 C72.159309,79.9822798 72.1056004,80.0359885 72.0393474,80.0359885 Z" id="Path" fill="#F2F2F2" fill-rule="nonzero"></path>
            <path d="M72.0393474,82.1952975 L48.1429942,82.1952975 C48.0767413,82.1952975 48.0230326,82.1415889 48.0230326,82.0753359 C48.0230326,82.0090829 48.0767413,81.9553743 48.1429942,81.9553743 L72.0393474,81.9553743 C72.1056004,81.9553743 72.159309,82.0090829 72.159309,82.0753359 C72.159309,82.1415889 72.1056004,82.1952975 72.0393474,82.1952975 Z" id="Path" fill="#F2F2F2" fill-rule="nonzero"></path>
            <path d="M72.0393474,84.3546065 L48.1429942,84.3546065 C48.0767413,84.3546065 48.0230326,84.3008979 48.0230326,84.2346449 C48.0230326,84.1683919 48.0767413,84.1146833 48.1429942,84.1146833 L72.0393474,84.1146833 C72.1056004,84.1146833 72.159309,84.1683919 72.159309,84.2346449 C72.159309,84.3008979 72.1056004,84.3546065 72.0393474,84.3546065 Z" id="Path" fill="#F2F2F2" fill-rule="nonzero"></path>
        </g>
        <g id="icons8-adobe-acrobat-reader" transform="translate(85, 3)">
            <g id="Group" transform="translate(9.25, 9.25)">
                <path d="M49.3333333,55.5 L6.16666667,55.5 C2.761125,55.5 0,52.738875 0,49.3333333 L0,6.16666667 C0,2.761125 2.761125,0 6.16666667,0 L49.3333333,0 C52.738875,0 55.5,2.761125 55.5,6.16666667 L55.5,49.3333333 C55.5,52.738875 52.738875,55.5 49.3333333,55.5 Z" id="Path" fill="#E53935"></path>
                <path d="M44.4632083,32.065125 C41.8547083,29.3564167 34.729125,30.46025 33.0240417,30.6606667 C30.51575,28.2525833 28.809125,25.3419167 28.207875,24.3382917 C29.1112917,21.6295833 29.7125417,18.9193333 29.81275,16.0102083 C29.81275,13.5019167 28.809125,10.7916667 26.0002083,10.7916667 C24.9965833,10.7916667 24.0931667,11.3944583 23.592125,12.196125 C22.3880833,14.3035833 22.889125,18.5185 24.7961667,22.8320833 C23.6923333,25.9431667 22.6887083,28.9525 19.8797917,34.27125 C16.969125,35.4752917 10.8487083,38.28575 10.3476667,41.2950833 C10.14725,42.1985 10.447875,43.1019167 11.150875,43.803375 C11.8523333,44.4077083 12.7542083,44.7083333 13.657625,44.7083333 C17.3699583,44.7083333 20.9820833,39.59 23.4919167,35.2764167 C25.599375,34.5734167 28.910875,33.5697917 32.222375,32.9685417 C36.135125,36.38025 39.5468333,36.8812917 41.3536667,36.8812917 C43.76175,36.8812917 44.6651667,35.8776667 44.9657917,34.97425 C45.4668333,33.9721667 45.1662083,32.8683333 44.4632083,32.065125 Z M41.9549167,33.7702083 C41.8547083,34.4732083 40.9512917,35.1746667 39.3464167,34.7738333 C37.439375,34.2727917 35.7342917,33.369375 34.2280833,32.1653333 C35.5323333,31.9649167 38.443,31.6642917 40.5504583,32.065125 C41.3536667,32.2655417 42.1553333,32.7665833 41.9549167,33.7702083 Z M25.197,13.0995417 C25.3974167,12.7989167 25.6980417,12.5985 26.0002083,12.5985 C26.903625,12.5985 27.1040417,13.7023333 27.1040417,14.60575 C27.0038333,16.7132083 26.603,18.8206667 25.9,20.8279167 C24.3953333,16.811875 24.6959583,14.0029583 25.197,13.0995417 Z M24.9965833,32.5661667 C25.7997917,30.9612917 26.903625,28.1508333 27.3044583,26.9467917 C28.207875,28.4514583 29.7125417,30.2582917 30.51575,31.0615 C30.51575,31.1617083 27.4046667,31.7645 24.9965833,32.5661667 Z M19.0765833,36.5806667 C16.7687083,40.3932083 14.360625,42.8028333 13.056375,42.8028333 C12.8559583,42.8028333 12.6555417,42.702625 12.4535833,42.6024167 C12.1529583,42.402 12.05275,42.101375 12.1529583,41.699 C12.4535833,40.293 15.0620833,38.3859583 19.0765833,36.5806667 Z" id="Shape" fill="#FFFFFF" fill-rule="nonzero"></path>
            </g>
        </g>
    </g>
</svg>