<svg height="166" viewBox="0 0 250 166" width="250" xmlns="http://www.w3.org/2000/svg"><g fill="none" transform="translate(10 19.362333)"><path d="m35.5694796 122.45856c1.8857898 6.90356 8.3450453 11.179107 8.3450453 11.179107s3.4017849-6.917334 1.5159952-13.820892c-1.8857897-6.903559-8.3450431-11.179108-8.3450431-11.179108s-3.4017871 6.917332-1.5159974 13.820893z" fill="#3f3d56"/><path d="m38.1124478 121.026192c5.2467048 4.970554 5.8875522 12.611475 5.8875522 12.611475s-7.8657431-.417962-13.1124478-5.388525c-5.2467048-4.970562-5.8875522-12.611475-5.8875522-12.611475s7.8657431.417971 13.1124478 5.388525z" fill="#387ed1"/><path d="m25 139.637667h182v1h-182z" fill="#2f2e41"/><path d="m46 140.637667h-7v-7h7zm-6.4615373-.53846h5.9230788v-5.923077h-5.9230788z" fill="#3f3d56"/><path d="m0 6.637667h62v62h-62z" fill="#3f3d56"/><g fill="#387ed1"><path d="m62 22.2018418v1.4358255c-.9395178-.6316817-1.697925-1.5040156-2.1984665-2.5287166-.8207224-1.7033753-.7947315-3.6668069-.7687275-5.5661575.029717-2.2573677.0594099-4.3866158-1.3517686-5.77344528-1.5522981-1.52251613-4.0367233-1.30770581-6.4394367-1.10041574-.2822414.02261184-.5644806.04896936-.8430046.07157898-2.4101481.18467823-5.0951226-.43337074-6.3985961-2.10284386h1.6265665c1.1920863.81399978 3.0154956 1.10041575 4.6903265.9722738.2711112-.0188395.5496352-.04522146.8281571-.06783109 2.5289898-.21856043 5.3959047-.46729962 7.3084387 1.41321146 1.7602624 1.72600943 1.726828 4.20573443 1.6934177 6.60253673-.0259974 1.7674674-.0482775 3.5914555.6573227 5.0536364.2927252.604083.6989228 1.1443163 1.1957708 1.5903472z"/><path d="m62 31.967709v1.6699583c-.2703623-.3563775-.573601-.6861014-.9056478-.9847481-1.9152127-1.703642-4.6655748-2.0780701-7.3231244-2.445002-.3451814-.0449544-.6829561-.0936081-1.0207089-.1422862-4.3092692-.6253101-6.9816562-2.1192741-8.1656806-4.5568043-.8202878-1.6923979-.7943107-3.6431761-.7683182-5.5302863.0296991-2.2428202.0593762-4.3583463-1.3510551-5.7362383-1.5514762-1.5127043-4.0345861-1.2992783-6.4360274-1.0933241-.2820897.0224639-.5641817.0486538-.8425561.0711177-3.0955457.235881-6.6476187-.8461879-7.1338472-3.77047015-.1670067-1.00348832.0816642-1.92456625.4491205-2.81195825h1.217441c-.4082993.89114004-.7126574 1.75232229-.5678971 2.62474423.3674519 2.23157607 3.344221 3.03285817 5.9535142 2.83440007.2709677-.0187181.5493421-.04493.8277186-.0673939 2.5276508-.217152 5.3930479-.4642882 7.3045693 1.404104 1.7593282 1.7148861 1.7259137 4.1786282 1.6925212 6.5599865-.0259837 1.756077-.0482542 3.5683082.6569724 5.0210682 1.009565 2.0818489 3.4035973 3.3698522 7.3231244 3.9389903.3340353.0486781.6718122.097354 1.0095628.142284 2.8208846.3856721 5.7419688.78629 7.9132898 2.7146043.0556835.0486795.1113597.1010976.1670286.157254z"/><path d="m62 59.3636754v2.2739919c-1.3442182-1.4175555-2.4687577-3.3629729-3.3289168-5.7956962-.1824534-.5168002-.3574763-1.0447079-.5324751-1.5725938-.964426-2.8904456-1.962352-5.8768975-4.3380204-7.7854084-2.5395181-2.0377283-6.1774732-2.4880842-9.6962871-2.9237027-.4505657-.0553587-.9011094-.1107413-1.3479522-.1697952-5.7045807-.7493904-9.2382887-2.532379-10.8059392-5.4486913-1.0872902-2.0266427-1.0537901-4.3596885-1.0202681-6.6152044.0409547-2.6800486.081927-5.2124276-1.7873314-6.8588562-2.0517162-1.808853-5.3396738-1.5541394-8.5159076-1.3067902-.376089.0295161-.7484506.059054-1.1133575.0848966-4.0997029.2805606-8.8026324-1.0114727-9.4431062-4.507356-.31650631-1.7128513.4915204-3.2300842 1.269759-4.6993031.4468383-.8416774.8713125-1.6427312 1.0872902-2.4659346.454293-1.69441866-.1079768-3.60292953-1.3554024-4.9355645h1.8245784c1.0650532 1.53345326 1.4161567 3.4458851.9644041 5.2530294-.2569082.9634826-.7335412 1.8642161-1.1952669 2.7354313-.7112232 1.3363345-1.3777424 2.5988255-1.1431522 3.8908588.4915204 2.6652655 4.4273846 3.6250769 7.8791612 3.3888154.3612015-.0258448.729838-.0553826 1.0984722-.0812035 3.3438218-.2621062 7.1344599-.5537285 9.6665101 1.6796378 2.3272589 2.0487922 2.2825769 4.9946206 2.237897 7.8407932-.0297969 2.1004775-.0633188 4.2673994.8675918 6.006115 1.3367876 2.4843868 4.509316 4.0274405 9.6963091 4.7103648.4393836.0590757.8862241.1144365 1.3330383.169817 3.7385255.4614415 7.599913.9376335 10.4708291 3.2448411 2.6921703 2.1632506 3.7533888 5.3342546 4.7736548 8.4019013.1750229.5242124.3500216 1.0410126.5287697 1.5541394.4734467 1.3851023 1.1201966 2.7058919 1.9251181 3.9314671z"/><path d="m0 31.7345328c1.70441855 2.0582407 5.31883131 2.8189122 8.55946816 2.5951891.3662995-.026103.7400754-.0559319 1.1175884-.0857608 3.18830864-.249824 6.48875014-.5071063 8.54825464 1.3199662 1.8763559 1.6630004 1.835239 4.2209089 1.7941244 6.9279595-.0336405 2.2782469-.0672788 4.6347983 1.0241455 6.6818637 1.5735959 2.9456882 5.1207298 4.7466598 10.8469753 5.5035901.4485311.0596599.9007993.1155896 1.3530719.1715215 3.5321812.439988 7.1839715.8948904 9.733124 2.9531443 2.3846872 1.9277477 3.386408 4.9442822 4.3544882 7.8638675.1756745.533207.3513489 1.0664141.5344998 1.5884392.168198.4810055.3476118.9396381.5344997 1.3833542h1.59976c-.280333-.6077815-.5195492-1.2155607-.7251248-1.7972414-.1794138-.5182926-.3550882-1.0403133-.5307627-1.5697901-1.0241455-3.0985673-2.0894057-6.3015356-4.7918057-8.4865589-2.8818116-2.3304485-6.757863-2.8114539-10.5105771-3.2775428-.448531-.0559318-.8970621-.1118615-1.338119-.1715215-5.2066963-.6898141-8.3912679-2.2484179-9.7331219-4.7578396-.9344397-1.7562261-.9008014-3.9449841-.870887-6.0666261.0448518-2.8748419.0897058-5.850359-2.2463947-7.9197971-2.5416673-2.2558762-6.346714-1.9613068-9.70322508-1.6965684-.37003881.0261009-.74007541.0559319-1.10263781.0820394-3.4649024.2386397-7.41571346-.7308295-7.90909853-3.4229657-.23547022-1.3050517.43358049-2.5802724 1.1474918-3.9300696.46348167-.879976.94191615-1.7897853 1.19981998-2.7629804.70270002-2.6623051-.48216937-5.6117214-2.88555746-7.2225378v1.827079c1.31196157 1.3497995 1.91000743 3.3222905 1.44652134 5.0747797-.21678914.8315046-.64289543 1.6406365-1.09142652 2.4907858-.11960696.2274512-.23921834.4511744-.35509482.6823559z"/><path d="m27 68.6376673h-1.5259293c-.0809008-.2430028-.1581296-.489719-.2390151-.7364595-.9523473-2.9270857-1.9377728-5.9513968-4.2836823-7.8841004-2.5077067-2.0635592-6.1000909-2.5196216-9.5748263-2.9607643-.4449217-.0560605-.8898216-.1121452-1.331067-.1719477-4.97126281-.6691728-8.27685706-2.157016-10.04548-4.527096v-3.7196321c.11366785.7425826.34330565 1.4619314.68023008 2.1308458 1.32004449 2.5158817 4.45282994 4.0784956 9.57485012 4.7700745.4338797.0598268.8751207.1158873 1.31634.1719719 3.6916926.4672887 7.5047103.9495192 10.3396638 3.2859714 2.6584468 2.1906725 3.7063719 5.4018752 4.7138596 8.508417.1250253.3813137.2463721.7588876.3750564 1.1327194z"/></g><path d="m84 6.637667h62v62h-62z" fill="#3f3d56"/><path d="m114 11.0684437c-.000545 7.0294321-3.829869 13.5186214-10.031968 17.0001926-6.2020992 3.4815712-13.8241504 3.4206536-19.968032-.1595903v-21.2713787h29.486238c.343205 1.45264809.515586 2.93934215.513762 4.4307764z" fill="#387ed1"/><circle cx="130" cy="23.637667" fill="#387ed1" r="12"/><circle cx="102.5" cy="48.137667" fill="#387ed1" r="8.5"/><path d="m146 57.6643968v9.9732705h-12.582669c-1.09308-3.2821467.005535-6.8719087 2.774849-9.0669218 2.769315-2.1950132 6.652412-2.5538534 9.80782-.9063487z" fill="#387ed1"/><circle cx="125" cy="48.637667" fill="#387ed1" r="2"/><path d="m168 6.637667h62v62h-62z" fill="#3f3d56"/><path d="m198.494117 6.6376673v25.5000004h-30.494117v1.4999996h32v-27z" fill="#387ed1"/><path d="m227.408637 68.6376673 2.591363-3.6852532v-2.6215454l-4.435877 6.3067986zm-10.523895-27-13.884742 19.7464249 10.316438 7.2535751h2.621523l-10.836954-7.619448 12.149628-17.2795444 12.749365 8.9660572v-1.8445056z" fill="#387ed1"/><path d="m194 38.6376673-8 8 8 8 8-7.9999866zm-5.868924 8.0000067 5.868925-5.8689285 5.868923 5.8689285-5.868923 5.8689284z" fill="#387ed1"/><circle cx="30.5" cy="6.137667" fill="#f2f2f2" r="5.5"/><circle cx="117.5" cy="6.137667" fill="#f2f2f2" r="5.5"/><circle cx="199.5" cy="6.137667" fill="#f2f2f2" r="5.5"/><circle cx="111.5" cy="34.137667" fill="#ffb8b8" r="5.5"/><path d="m108 36.1084275s1.451614 7.5535374.870967 9.0061415c-.580646 1.4526042 8.129033-.5810425 8.129033-.5810425s-1.741934-7.5535375-1.451614-9.2966606c.290321-1.7431232-7.548386.8715616-7.548386.8715616z" fill="#ffb8b8"/><path d="m99 61.6376673.5999295 7.6665926 2.9778025 12.0404833.922209 3.2929241 1.500059-5.1111358-1.500059-11.6420686-.509494-5.241421z" fill="#ffb8b8"/><path d="m129 60.6376673v7.9255864s-.882355 10.1900358-2.647059 12.7375514c-1.764705 2.5475156-2.352941-10.1900358-2.352941-10.1900358l1.382821-9.3408706z" fill="#ffb8b8"/><path d="m103.71999 84.577264s-1.41118 1.6703865-.282237 18.652659c1.128943 16.982272-.56447 29.231776 3.104597 29.231776 0 0-1.128943 3.619174 1.975649 3.89757 3.104593.278398 4.515772.556797 4.798008-.278396s.846707-4.732765 0-4.732765c0 0 0 1.113591.56447-3.340773.564471-4.454365.564473-25.612606 1.97565-28.396586l4.515767 10.300722s0 4.732765.846706 6.959946c.846707 2.227182 2.257886 15.033479 2.257886 15.033479l-.282236 1.948785s6.773653 1.113592 7.055891 0 .282236-2.783978 0-3.340773-.282234-.556795.282236-1.670387c.564471-1.113591.564471-1.948785.282237-2.78398-.282235-.835195-.282237-18.931055-.282237-18.931055s-.56447-21.9934338-3.951299-23.1070233c-3.386828-1.1135896-22.861088.5568013-22.861088.5568013z" fill="#2f2e41"/><path d="m107.114935 134.637667-2.232305 3.896493s-3.487982-1.252446-2.790386 1.948246c5.999327.417481 10.184903-.139162 10.184903-.139162s1.395191.556643 1.67423-.278319c.279039-.834963-.697597-3.757333-1.534711-3.757333-.837115 0-5.301731-1.669925-5.301731-1.669925z" fill="#2f2e41"/><path d="m123.610786 133.647161s-2.271459 4.885443-1.419663 5.156857c.851797.271414 8.517966 1.357069 9.085834 1.628481s3.407186.542826 3.691121-1.085655-1.419662-2.171309-1.419662-2.171309-3.123256-.542827-3.975052-3.256962c-.851797-2.714136-5.962578-.271412-5.962578-.271412z" fill="#2f2e41"/><path d="m117.919997 43.2592999s-7.56-1.3986734-9.240002 0c-1.679995 1.3986735-8.679995 4.1960182-8.679995 5.5946916 0 1.3986735 3.64 15.1056575 3.64 15.1056575s-1.96 20.7003556 0 21.2598237 5.320002-1.1189383 9.240003.8392032 15.119997-1.6784064 15.119997-1.6784064-4.199999-17.9030109-3.080001-21.2598237 1.959996-14.8259245 1.959996-14.8259245-4.759996-5.0352214-8.959998-5.0352214z" fill="#8985a8"/><path d="m101.573067 48.6376673-1.8379788.5614047s-3.9385263 13.192981-2.3631166 13.7543857 6.0390744 1.6842096 6.5642094 1.6842096c.525136 0-2.363114-16-2.363114-16z" fill="#8985a8"/><path d="m122 46.6376673 4.39432 1.6999993s5.767544 11.0500024 4.394319 12.4666677c-1.373226 1.4166654-7.415413 2.833333-7.415413 2.833333z" fill="#8985a8"/><path d="m111.282667 27.6864429c-.458561-.081164-.929917-.0608336-1.379372.0594948-.359732.1556169-.690891.3678403-.980282.6282136-.525119.4088278-1.085961.7718324-1.676067 1.0848336-.47028.2494096-.975799.4802559-1.304113.8930652-.155208.2086236-.279148.4378176-.368072.6806511-.5656 1.4110968-.717602 2.9482316-.438958 4.439006.031318.2118245.096555.4175163.193319.6095304.301635.542923.967848.7568844 1.529063 1.0414913 1.065514.5403523 1.873212 1.4502291 2.747136 2.2543474.3246.3165566.689371.5911867 1.085407.8171849 1.246779.6640925 2.770715.4474472 4.170273.2126161.200314-.0003763.392186-.0788607.533016-.218028s.218963-.3275005.217052-.5231857l1.104718-4.8540951c.200247-.7191926.295567-1.4624009.283137-2.2076263-.077076-1.1783314-.730065-2.8105968-1.615267-3.6476059-1.031417-.9752633-2.752772-1.1304536-4.10099-1.2698934z" fill="#2f2e41"/><circle cx="75" cy="134.637667" fill="#387ed1" r="2"/><path d="m75.5 140.637667c-3.5898509 0-6.5-2.910149-6.5-6.5s2.9101491-6.5 6.5-6.5 6.5 2.910149 6.5 6.5c-.0040157 3.588186-2.9118138 6.495985-6.5 6.5zm0-12.499994c-2.4267719 0-4.6145882 1.461853-5.5432735 3.703897-.9286854 2.242045-.4153512 4.822751 1.3006356 6.538737 1.7159869 1.715987 4.2966921 2.229321 6.538737 1.300636 2.2420448-.928685 3.703897-3.116502 3.703897-5.54327-.003788-3.312139-2.6878601-5.996212-5.9999961-6z" fill="#2f2e41"/><circle cx="183" cy="134.637667" fill="#387ed1" r="2"/><path d="m182.500095 140.637667c-2.628966 0-4.999067-1.583651-6.005129-4.012499s-.449958-5.224573 1.409002-7.083533c1.85896-1.858959 4.654685-2.415064 7.083533-1.409002s4.012499 3.376163 4.012499 6.005129c-.004016 3.588134-2.911771 6.49589-6.499905 6.499905zm0-12.499809c-3.313658 0-5.999908 2.686251-5.999908 5.999909s2.68625 5.999908 5.999908 5.999908 5.999908-2.68625 5.999908-5.999908c-.003791-3.312085-2.687823-5.996114-5.999908-5.999909z" fill="#2f2e41"/><circle cx="183" cy="122.637667" fill="#387ed1" r="2"/><path d="m182.500095 128.637667c-2.628966 0-4.999067-1.583651-6.005129-4.012499s-.449958-5.224573 1.409002-7.083533c1.85896-1.858959 4.654685-2.415064 7.083533-1.409002s4.012499 3.376163 4.012499 6.005129c-.004016 3.588134-2.911771 6.49589-6.499905 6.499905zm0-12.499809c-3.313658 0-5.999908 2.686251-5.999908 5.999909s2.68625 5.999908 5.999908 5.999908 5.999908-2.68625 5.999908-5.999908c-.003788-3.312088-2.68782-5.996121-5.999908-5.999909z" fill="#2f2e41"/></g></svg>