<?xml version="1.0" encoding="UTF-8"?>
<svg width="250px" height="166px" viewBox="0 0 250 166" version="1.1" xmlns="http://www.w3.org/2000/svg" xmlns:xlink="http://www.w3.org/1999/xlink">
    <title>Chatbot</title>
    <g id="Chatbot" stroke="none" fill="none" fill-rule="evenodd" stroke-width="1">
        <g id="Group" transform="translate(35, 6)">
            <path d="M134.463207,103.806297 C133.702275,103.805136 133.072487,103.218657 133.022734,102.464881 L132.808185,99.2129009 C132.755996,98.4219395 133.359583,97.7387349 134.156345,97.6869089 L159.821037,96.0183877 C160.922169,95.9459233 161.978527,96.4624468 162.591816,97.373206 C163.205105,98.2839653 163.282049,99.4504389 162.793635,100.432815 C162.305222,101.41519 161.325736,102.064054 160.224488,102.134756 L134.559874,103.803171 C134.527558,103.80522 134.495336,103.806297 134.463207,103.806297 Z" id="Path" fill="#387ED1"></path>
            <path d="M139.523899,104.225584 C138.747031,104.224292 138.109697,103.614485 138.079787,102.843846 L137.896897,97.9866317 C137.882575,97.6062555 138.021063,97.2358125 138.281891,96.9568065 C138.542718,96.6778005 138.904517,96.5130895 139.287685,96.4989127 L160.392447,95.7158624 C161.190359,95.6862943 161.861353,96.3044228 161.891188,97.0965226 L162.074078,101.953737 C162.0884,102.334113 161.949912,102.704556 161.689085,102.983562 C161.428257,103.262568 161.066458,103.427279 160.68329,103.441456 L139.578529,104.224506 C139.560281,104.22526 139.541983,104.225584 139.523899,104.225584 Z" id="Path" fill="#2F2E41"></path>
            <path d="M164.255289,149 L160.972394,149 C160.174308,148.999102 159.527557,148.35706 159.526654,147.564786 L159.526654,120.403003 C159.527557,119.610729 160.174308,118.968687 160.972394,118.96779 L164.255289,118.96779 C165.053376,118.968686 165.700128,119.610728 165.701031,120.403003 L165.701031,147.564786 C165.700128,148.357061 165.053376,148.999104 164.255289,149 L164.255289,149 Z" id="Path" fill="#2F2E41"></path>
            <path d="M156.413283,149 L153.130389,149 C152.332303,148.999102 151.685552,148.35706 151.684649,147.564786 L151.684649,120.403003 C151.685552,119.610729 152.332303,118.968687 153.130389,118.96779 L156.413283,118.96779 C157.21137,118.968686 157.858122,119.610728 157.859025,120.403003 L157.859025,147.564786 C157.858122,148.357061 157.21137,148.999104 156.413283,149 L156.413283,149 Z" id="Path" fill="#2F2E41"></path>
            <ellipse id="Oval" fill="#387ED1" cx="159.269274" cy="79.3606048" rx="11.3435103" ry="11.2609071"></ellipse>
            <path d="M153.129105,83.2054727 C152.764224,83.0864499 152.429245,82.8912488 152.146692,82.6329957 C151.767752,82.2597444 151.574216,81.7394057 151.617885,81.2112497 C151.641952,80.8344052 151.842122,80.4904051 152.158936,80.2814355 C152.564588,80.0231182 153.107135,80.0223541 153.659534,80.2640219 L153.638625,75.8679237 L154.083438,75.8658197 L154.108045,81.0338973 L153.765294,80.8198659 C153.367841,80.572095 152.800232,80.3976907 152.399161,80.6531522 C152.198259,80.7899622 152.073118,81.0119544 152.060737,81.253495 C152.030389,81.646782 152.173909,82.0337171 152.453929,82.3135546 C152.945128,82.7793457 153.661773,82.9250073 154.479009,83.0551688 L154.408508,83.4911478 C153.974301,83.434051 153.546121,83.3384436 153.129105,83.2054727 Z" id="Path" fill="#2F2E41"></path>
            <polygon id="Rectangle" fill="#2F2E41" transform="translate(150.2118, 76.021) rotate(-82.4767) translate(-150.2118, -76.021)" points="149.989865 74.8229857 150.431469 74.8234061 150.433734 77.2189576 149.99213 77.2185371"></polygon>
            <polygon id="Rectangle" fill="#2F2E41" transform="translate(157.7088, 77.0031) rotate(-82.4768) translate(-157.7088, -77.0031)" points="157.486876 75.8050722 157.928481 75.8054926 157.930745 78.2010479 157.489141 78.2006275"></polygon>
            <path d="M166.666076,127.690551 L149.612866,127.690551 C148.743845,127.689461 147.987077,127.101407 147.77732,126.264222 C147.726576,126.041002 147.718141,125.810353 147.752449,125.584068 C147.752449,125.584068 151.083512,107.014418 152.731338,98.096073 C153.227044,95.4135967 155.582459,93.4656668 158.329704,93.4662208 L158.329721,93.4662208 C165.123933,93.4662208 170.631731,98.9339106 170.631731,105.678648 L170.631731,123.753776 C170.631731,124.797874 170.213924,125.79921 169.470219,126.537499 C168.726514,127.275788 167.717833,127.690551 166.666076,127.690551 L166.666076,127.690551 Z" id="Path" fill="#2F2E41"></path>
            <path d="M163.377593,125.23689 C163.122807,125.743233 162.592432,126.054028 162.022759,126.03081 L158.742792,125.893605 C158.359696,125.877603 157.998697,125.711166 157.739226,125.430915 C157.479754,125.150663 157.343068,124.779559 157.359242,124.399255 L158.441701,98.8895551 C158.488119,97.795646 159.118885,96.8094156 160.096396,96.3023674 C161.073907,95.7953192 162.249656,95.8444858 163.18075,96.4313468 C164.111843,97.0182077 164.656826,98.0536048 164.610408,99.1475139 L163.528071,124.657214 C163.519753,124.858826 163.468466,125.056396 163.377593,125.23689 Z" id="Path" fill="#387ED1"></path>
            <path d="M165.056465,118.473047 C164.801684,118.979377 164.271314,119.290155 163.701656,119.266918 L158.099288,119.032617 C157.30197,118.998341 156.68305,118.329855 156.715737,117.538267 L157.604624,96.5911494 C157.620728,96.2108352 157.788376,95.8524523 158.070678,95.5948557 C158.352981,95.3372591 158.72681,95.2015542 159.109912,95.2176001 L164.712185,95.4518539 C165.09528,95.4678596 165.456277,95.6342977 165.715748,95.9145481 C165.975219,96.1947985 166.111906,96.5659007 166.095735,96.9462044 L165.206945,117.893379 C165.198573,118.094981 165.147288,118.292538 165.056465,118.473047 L165.056465,118.473047 Z" id="Path" fill="#2F2E41"></path>
            <path d="M158.638836,72.0461176 C156.192019,73.003986 152.494858,74.0221854 150.881725,71.1784003 C150.24492,70.0025471 150.148216,68.6116276 150.616256,67.3600748 C151.103439,66.0184088 152.139875,64.91308 153.320941,64.1320046 C155.533328,62.6689063 158.332602,62.2706083 160.90915,62.8360932 C162.204736,63.1160999 163.434075,63.6405741 164.530337,64.3810046 C165.776724,65.2291879 166.654251,66.3741336 167.536301,67.5724203 C168.438039,68.7974398 169.459142,70.0329854 170.941077,70.5696723 C172.152727,71.0084764 173.672004,70.78447 174.529207,69.7634435 C174.729333,69.5250001 174.882882,69.2515783 174.98197,68.9572167 C175.110605,68.58196 174.51283,68.4208781 174.384978,68.7938322 C173.934519,70.107911 172.276399,70.4024035 171.105656,69.9770304 C169.560133,69.4154933 168.583904,67.9566297 167.657031,66.6971517 C166.770934,65.4930817 165.79124,64.433063 164.511435,63.6344081 C163.360994,62.921751 162.086938,62.4279806 160.754407,62.1783429 C158.071938,61.6717733 155.183003,62.1207326 152.909688,63.6676885 C151.656961,64.4821045 150.67539,65.6467262 150.088902,67.0145154 C149.568226,68.3086972 149.581473,69.7542999 150.12578,71.0388642 C150.680927,72.3385319 151.847096,73.2819519 153.241405,73.5593772 C154.740377,73.8609232 156.297723,73.5139973 157.720562,73.035857 C158.085118,72.9133472 158.445405,72.7789163 158.803413,72.6387656 C159.1698,72.4953329 159.010194,71.9007366 158.63883,72.0461217 L158.638836,72.0461176 Z" id="Path" fill="#2F2E41"></path>
            <path d="M9.93148705,0 L87.5917659,0 C93.0742253,0.00612826851 97.5170934,4.41665446 97.523253,9.85919076 L97.523253,52.0360973 C97.5170923,57.4786311 93.0742229,61.8891531 87.5917659,61.8952758 L9.93148705,61.8952758 C4.44903009,61.8891531 0.00616069918,57.4786311 0,52.0360973 L0,9.85919076 C0.00615955124,4.41665446 4.44902761,0.00612826851 9.93148705,0 Z" id="Path" fill="#F2F2F2"></path>
            <path d="M9.93138593,2.83824959 L87.5917659,2.83824959 C91.4959562,2.84259403 94.6598386,5.98343066 94.6642229,9.85919076 L94.6642229,52.0360973 C94.6598341,55.9118539 91.4959527,59.0526849 87.5917659,59.0570282 L9.93138593,59.0570282 C6.02723426,59.0526409 2.86340836,55.9118191 2.85903212,52.0360973 L2.85903212,9.85919076 C2.86340268,5.98346499 6.02723024,2.84263695 9.93138593,2.83824959 Z" id="Path" fill="#FFFFFF"></path>
            <path d="M10.6891919,76.9960418 C10.4548461,76.9953771 10.2229364,76.9488056 10.0067559,76.8589968 C9.34634326,76.5955266 8.91641827,75.9568045 8.9238288,75.25028 L8.9238288,60.669998 L28.504703,60.0159886 L11.918385,76.4815767 C11.5944126,76.8093004 11.1517286,76.9945808 10.6891919,76.9960418 L10.6891919,76.9960418 Z" id="Path" fill="#F2F2F2"></path>
            <rect id="Rectangle" fill="#F2F2F2" x="15.2353056" y="13.3291809" width="66.8634141" height="8.40513533" rx="4.20256766"></rect>
            <rect id="Rectangle" fill="#F2F2F2" x="15.3299194" y="26.7450712" width="66.8634141" height="8.40513533" rx="4.20256766"></rect>
            <rect id="Rectangle" fill="#F2F2F2" x="15.4245332" y="40.1609616" width="66.8634141" height="8.40513533" rx="4.20256766"></rect>
            <path d="M132.562974,21.510908 L54.9026947,21.510908 C49.4202352,21.5170363 44.9773672,25.9275625 44.9712076,31.3700988 L44.9712076,73.5470053 C44.9773683,78.9895392 49.4202377,83.4000612 54.9026947,83.4061838 L132.562974,83.4061838 C138.045431,83.4000612 142.4883,78.9895392 142.494461,73.5470053 L142.494461,31.3700988 C142.488301,25.9275625 138.045433,21.5170363 132.562974,21.510908 Z" id="Path" fill="#E6E6E6"></path>
            <path d="M132.563075,24.3491576 L54.9026947,24.3491576 C50.9985043,24.3535021 47.834622,27.4943387 47.8302377,31.3700988 L47.8302377,73.5470053 C47.8346265,77.4227619 50.9985079,80.5635929 54.9026947,80.5679362 L132.563075,80.5679362 C136.467227,80.5635489 139.631053,77.4227274 139.635431,73.5470053 L139.635431,31.3700988 C139.631059,27.4943727 136.467231,24.353545 132.563075,24.3491576 L132.563075,24.3491576 Z" id="Path" fill="#FFFFFF"></path>
            <path d="M126.655073,97.9924847 L110.068755,81.5268966 L129.649631,82.1809061 L129.649631,96.761188 C129.657041,97.4677124 129.227116,98.1064341 128.566704,98.3699048 C128.350523,98.4597135 128.118612,98.5062849 127.884266,98.5069498 C127.421729,98.5054888 126.979045,98.3202084 126.655073,97.9924847 L126.655073,97.9924847 Z" id="Path" fill="#E6E6E6"></path>
            <ellipse id="Oval" fill="#387ED1" cx="76.6042435" cy="52.4585469" rx="5.36558262" ry="5.32651056"></ellipse>
            <ellipse id="Oval" fill="#387ED1" cx="93.7328341" cy="52.4585469" rx="5.36558262" ry="5.32651056"></ellipse>
            <ellipse id="Oval" fill="#387ED1" cx="110.861425" cy="52.4585469" rx="5.36558262" ry="5.32651056"></ellipse>
        </g>
    </g>
</svg>