<?xml version="1.0" encoding="utf-8"?>
<!-- Generator: Adobe Illustrator 27.7.0, SVG Export Plug-In . SVG Version: 6.00 Build 0)  -->
<svg version="1.2" baseProfile="tiny-ps" id="Calque_1"
	 xmlns="http://www.w3.org/2000/svg" xmlns:xlink="http://www.w3.org/1999/xlink" viewBox="0 0 216 216"
	 overflow="visible" xml:space="preserve">
<title>Simplicité Software</title>
<g id="Artboard">
	<rect y="0" fill-rule="evenodd" fill="#FFFFFF" width="216" height="216"/>
	<g id="simplicite-bimi-sq-white-bkg">
		<rect id="Rectangle" y="0" fill="#FFFFFF" width="216" height="216"/>
		<g id="Group" transform="translate(32.900000, 29.000000)">
			<polygon id="Path" points="102.3,0 47.9,0 47.9,8.8 102.3,8.8 			"/>
			<polygon id="Path_00000137090541781464923130000000915205492830426241_" points="102.3,149.1 47.9,149.1 47.9,157.9 102.3,157.9 
							"/>
			<polygon id="Path_00000012436005198783155670000007377044080954895244_" points="131.7,21.3 18.5,21.3 18.5,30.1 131.6,30.1 
				131.6,21.3 			"/>
			<polygon id="Path_00000012458992983373156010000014551020850325627018_" points="131.7,127.8 18.5,127.8 18.5,136.6 131.6,136.6 
				131.6,127.8 			"/>
			<polygon id="Path_00000109025444426641075070000016296525951214377868_" points="145.4,42.6 4.8,42.6 4.8,51.4 145.3,51.4 
				145.3,42.6 			"/>
			<polygon id="Path_00000093892039787471019590000013020685073496014758_" points="145.4,106.5 4.8,106.5 4.8,115.3 145.3,115.3 
				145.3,106.5 			"/>
			<polygon id="Path_00000144323358524985604370000014051436727309449359_" points="150.2,63.9 0,63.9 0,72.7 150.2,72.7 			"/>
			<polygon id="Path_00000146469191238346770950000002157015106517286812_" points="150.2,85.2 0,85.2 0,94 150.2,94 			"/>
		</g>
	</g>
</g>
</svg>
